<?xml version="1.0" standalone="no"?>
<!DOCTYPE svg PUBLIC "-//W3C//DTD SVG 20010904//EN"
 "http://www.w3.org/TR/2001/REC-SVG-20010904/DTD/svg10.dtd">
<svg version="1.0" xmlns="http://www.w3.org/2000/svg"
 width="779.000000pt" height="134.000000pt" viewBox="0 0 779.000000 134.000000"
 preserveAspectRatio="xMidYMid meet">

<g transform="translate(0.000000,134.000000) scale(0.100000,-0.100000)"
fill="#000000" stroke="none">
<path d="M1604 1054 c-52 -25 -83 -65 -73 -91 9 -24 24 -30 34 -13 3 6 12 10
19 10 21 0 8 -211 -14 -225 -5 -3 -22 9 -39 26 -23 22 -38 29 -58 27 -61 -8
-105 -46 -143 -123 -8 -16 -21 -35 -28 -41 -43 -33 -64 -303 -27 -344 15 -17
20 -18 39 -5 12 8 32 32 44 54 12 21 41 55 64 75 43 36 58 43 59 29 3 -47 13
-106 24 -143 7 -25 16 -62 20 -82 3 -21 22 -58 41 -84 20 -26 44 -61 53 -78
36 -65 114 -55 117 14 2 35 1 35 -30 15 -22 -15 -26 -14 -54 10 -17 15 -45 54
-62 89 -28 57 -31 71 -33 172 -1 121 16 200 55 241 l21 23 -21 0 c-26 0 -27 2
-6 46 9 19 14 37 11 40 -3 3 3 34 13 69 10 35 16 66 12 69 -3 3 0 16 6 29 6
12 16 40 23 62 6 22 15 45 20 50 4 6 11 30 15 53 l7 42 -39 0 c-22 0 -53 -7
-70 -16z m-96 -384 c7 0 12 -12 12 -28 0 -15 4 -32 10 -38 18 -18 -22 -71 -99
-134 -40 -33 -78 -57 -83 -53 -21 12 15 189 47 231 35 45 46 50 73 36 15 -8
33 -14 40 -14z"/>
<path d="M4941 1056 c-34 -12 -71 -48 -71 -71 0 -6 9 -20 21 -31 15 -13 24
-16 36 -8 28 17 60 77 54 100 -5 19 -9 20 -40 10z"/>
<path d="M7294 1054 c-52 -25 -83 -65 -73 -91 9 -24 24 -30 34 -13 3 6 12 10
19 10 21 0 8 -211 -14 -225 -5 -3 -22 9 -39 26 -23 22 -38 29 -58 27 -61 -8
-105 -46 -143 -123 -8 -16 -21 -35 -28 -41 -43 -33 -64 -303 -27 -344 15 -17
20 -18 39 -5 12 8 32 32 44 54 12 21 41 55 64 75 43 36 58 43 59 29 3 -47 13
-106 24 -143 7 -25 16 -62 20 -82 3 -21 22 -58 41 -84 20 -26 44 -61 53 -78
36 -65 114 -55 117 14 2 35 1 35 -30 15 -22 -15 -26 -14 -54 10 -17 15 -45 54
-62 89 -28 57 -31 71 -33 172 -1 121 16 200 55 241 l21 23 -21 0 c-26 0 -27 2
-6 46 9 19 14 37 11 40 -3 3 3 34 13 69 10 35 16 66 12 69 -3 3 0 16 6 29 6
12 16 40 23 62 6 22 15 45 20 50 4 6 11 30 15 53 l7 42 -39 0 c-22 0 -53 -7
-70 -16z m-96 -384 c7 0 12 -12 12 -28 0 -15 4 -32 10 -38 18 -18 -22 -71 -99
-134 -40 -33 -78 -57 -83 -53 -21 12 15 189 47 231 35 45 46 50 73 36 15 -8
33 -14 40 -14z"/>
<path d="M7721 1056 c-34 -12 -71 -48 -71 -71 0 -6 9 -20 21 -31 15 -13 24
-16 36 -8 28 17 60 77 54 100 -5 19 -9 20 -40 10z"/>
<path d="M6729 1037 c-51 -31 -169 -139 -169 -154 0 -7 9 -13 21 -13 27 0 51
-57 43 -102 -4 -18 -24 -84 -45 -147 -22 -62 -39 -128 -39 -147 0 -18 -5 -36
-11 -40 -15 -9 -6 -87 15 -119 l17 -25 57 37 c31 21 83 52 116 68 54 28 88 66
72 82 -3 4 -42 -12 -85 -35 -52 -28 -82 -39 -86 -32 -4 6 -5 13 -2 16 2 3 1
24 -4 48 -5 26 -4 58 2 78 33 111 81 296 81 310 0 10 3 20 9 23 5 4 9 17 9 29
0 13 11 39 24 59 25 36 30 50 27 75 -1 17 -11 15 -52 -11z"/>
<path d="M320 1020 c-8 -5 -28 -10 -44 -10 -42 0 -95 -39 -97 -70 -1 -14 -3
-30 -3 -37 -1 -7 -14 -25 -29 -41 -15 -15 -27 -36 -27 -45 0 -22 28 -22 52 0
17 15 19 15 33 -3 8 -10 15 -27 15 -36 0 -22 -20 -107 -30 -128 -4 -8 -15 -60
-25 -115 -9 -55 -20 -107 -23 -115 -3 -8 -6 -19 -6 -25 -4 -31 -19 -85 -32
-116 -13 -29 -20 -35 -38 -32 -17 4 -29 -3 -44 -24 -11 -16 -19 -36 -17 -44 9
-40 18 -59 29 -59 17 0 56 29 56 43 1 7 14 28 30 47 17 19 30 39 30 45 0 5 7
23 15 38 12 23 31 130 50 284 5 38 16 63 28 63 24 -1 49 -28 43 -47 -4 -13 6
-32 31 -61 20 -23 40 -42 44 -42 4 0 52 -28 106 -61 54 -34 110 -66 126 -71
33 -12 77 -3 77 15 0 23 -46 58 -86 64 -37 6 -103 43 -106 60 -1 4 -19 31 -40
58 -61 80 -79 177 -35 191 33 10 155 92 193 131 40 40 45 79 12 92 -13 5 -26
7 -30 5 -11 -7 -203 35 -206 46 -5 13 -32 13 -52 0z m168 -100 c20 0 44 -5 52
-10 12 -7 11 -13 -9 -34 -34 -36 -162 -111 -183 -108 -10 2 -18 -2 -18 -7 0
-6 -5 -11 -12 -11 -7 0 -25 -12 -40 -27 -32 -31 -35 -21 -12 37 9 23 14 44 10
47 -3 4 1 14 10 24 8 9 19 30 23 45 7 27 12 29 59 32 29 2 52 8 52 14 0 5 7 7
16 4 9 -3 32 -6 52 -6z"/>
<path d="M4240 1020 c-8 -5 -28 -10 -44 -10 -42 0 -95 -39 -97 -70 -1 -14 -3
-30 -3 -37 -1 -7 -14 -25 -29 -41 -15 -15 -27 -36 -27 -45 0 -22 28 -22 52 0
17 15 19 15 33 -3 8 -10 15 -27 15 -36 0 -22 -20 -107 -30 -128 -4 -8 -15 -60
-25 -115 -9 -55 -20 -107 -23 -115 -3 -8 -6 -19 -6 -25 -4 -31 -19 -85 -32
-116 -13 -29 -20 -35 -38 -32 -17 4 -29 -3 -44 -24 -11 -16 -19 -36 -17 -44 9
-40 18 -59 29 -59 17 0 56 29 56 43 1 7 14 28 30 47 17 19 30 39 30 45 0 5 7
23 15 38 12 23 31 130 50 284 5 38 16 63 28 63 24 -1 49 -28 43 -47 -4 -13 6
-32 31 -61 20 -23 40 -42 44 -42 4 0 52 -28 106 -61 54 -34 110 -66 126 -71
33 -12 77 -3 77 15 0 23 -46 58 -86 64 -37 6 -103 43 -106 60 -1 4 -19 31 -40
58 -61 80 -79 177 -35 191 33 10 155 92 193 131 40 40 45 79 12 92 -13 5 -26
7 -30 5 -11 -7 -203 35 -206 46 -5 13 -32 13 -52 0z m168 -100 c20 0 44 -5 52
-10 12 -7 11 -13 -9 -34 -34 -36 -162 -111 -183 -108 -10 2 -18 -2 -18 -7 0
-6 -5 -11 -12 -11 -7 0 -25 -12 -40 -27 -32 -31 -35 -21 -12 37 9 23 14 44 10
47 -3 4 1 14 10 24 8 9 19 30 23 45 7 27 12 29 59 32 29 2 52 8 52 14 0 5 7 7
16 4 9 -3 32 -6 52 -6z"/>
<path d="M6112 809 c-89 -11 -95 -14 -145 -68 -39 -42 -78 -126 -82 -176 0 -5
-5 -17 -10 -25 -5 -8 -19 -53 -32 -100 -23 -90 -22 -170 3 -170 26 0 65 20 71
37 4 9 14 25 22 35 39 44 63 76 93 123 18 28 38 54 45 58 7 4 13 15 13 22 0 8
6 15 14 15 8 0 17 -22 25 -62 20 -105 94 -234 109 -190 2 7 10 12 17 12 8 0
22 13 32 30 9 16 20 30 24 30 3 0 24 19 45 41 22 23 47 49 57 57 19 18 23 52
5 52 -6 0 -37 -25 -69 -55 -32 -30 -63 -55 -69 -55 -6 0 -20 21 -32 48 -15 35
-22 76 -26 165 -4 111 -4 119 17 138 11 11 21 24 21 28 0 8 -52 22 -74 20 -6
-1 -39 -5 -74 -10z m-4 -84 c11 -11 -22 -111 -51 -154 -50 -74 -129 -176 -138
-179 -34 -13 56 273 106 336 10 12 70 10 83 -3z"/>
<path d="M3154 792 c-28 -16 -103 -70 -114 -83 -3 -3 -13 -8 -22 -12 -23 -8
-39 -40 -28 -57 7 -11 16 -8 44 14 31 23 37 25 42 11 4 -9 4 -42 0 -73 -8 -77
-11 -90 -19 -98 -4 -4 -7 -42 -7 -85 0 -68 2 -77 20 -82 37 -10 101 35 198
139 53 57 102 104 108 104 46 0 18 -262 -39 -375 -8 -16 -27 -67 -40 -113
l-25 -82 23 0 c23 0 35 17 35 51 0 11 4 27 10 37 10 19 66 177 81 232 6 19 17
49 25 67 8 17 14 45 14 62 0 16 10 56 22 88 12 32 21 63 20 70 -1 6 2 14 8 18
5 3 10 21 10 39 0 17 5 37 11 43 8 8 8 13 0 17 -8 5 -8 13 -1 26 12 23 -3 35
-19 16 -7 -8 -20 -12 -30 -9 -32 8 -69 -24 -76 -68 -6 -33 -22 -54 -113 -139
-58 -55 -110 -100 -114 -100 -23 0 4 268 33 323 20 37 -7 47 -57 19z"/>
<path d="M980 774 c-68 -18 -113 -48 -132 -88 -9 -17 -25 -49 -36 -71 -34 -67
-28 -277 8 -310 17 -16 22 -14 77 23 89 61 212 209 213 256 0 11 9 30 21 42
14 15 22 40 26 82 6 65 -3 80 -38 61 -18 -9 -24 -8 -31 5 -11 19 -35 19 -108
0z m60 -94 c0 -11 -6 -20 -12 -20 -8 -1 -6 -6 4 -14 17 -12 17 -16 -3 -74 -11
-33 -27 -66 -35 -73 -8 -6 -14 -17 -14 -23 0 -7 -16 -27 -35 -46 -25 -25 -38
-31 -46 -23 -10 10 -22 125 -21 191 0 44 66 96 126 100 30 2 36 -1 36 -18z"/>
<path d="M1914 747 c-27 -23 -67 -53 -87 -67 -20 -14 -37 -31 -37 -37 0 -19
14 -16 44 8 15 11 33 19 40 16 16 -7 25 -67 14 -98 -5 -12 -11 -42 -14 -66 -3
-25 -16 -79 -28 -119 l-24 -74 22 0 c29 1 67 36 95 90 56 109 182 250 222 250
20 0 19 -45 -5 -162 -19 -93 -20 -121 -3 -151 20 -37 28 -37 89 6 33 23 76 51
95 63 37 22 80 71 70 81 -10 10 -52 -6 -98 -36 -24 -17 -47 -27 -52 -22 -14
14 -9 140 9 236 10 52 15 97 12 101 -28 27 -224 -124 -318 -244 -14 -17 -28
-32 -31 -32 -12 0 21 134 41 171 11 20 20 46 20 57 0 12 5 24 10 27 6 3 10 15
10 26 0 32 -41 22 -96 -24z"/>
<path d="M5234 747 c-27 -23 -67 -53 -87 -67 -20 -14 -37 -31 -37 -37 0 -19
14 -16 44 8 15 11 33 19 40 16 16 -7 25 -67 14 -98 -5 -12 -11 -42 -14 -66 -3
-25 -16 -79 -28 -119 l-24 -74 22 0 c29 1 67 36 95 90 56 109 182 250 222 250
20 0 19 -45 -5 -162 -19 -93 -20 -121 -3 -151 20 -37 28 -37 89 6 33 23 76 51
95 63 37 22 80 71 70 81 -10 10 -52 -6 -98 -36 -24 -17 -47 -27 -52 -22 -14
14 -9 140 9 236 10 52 15 97 12 101 -28 27 -224 -124 -318 -244 -14 -17 -28
-32 -31 -32 -12 0 21 134 41 171 11 20 20 46 20 57 0 12 5 24 10 27 6 3 10 15
10 26 0 32 -41 22 -96 -24z"/>
<path d="M2645 752 c-58 -38 -94 -84 -100 -127 -2 -21 -11 -45 -19 -54 -18
-20 -39 -98 -32 -117 3 -8 1 -14 -3 -14 -12 0 -2 -141 10 -156 7 -8 31 -5 87
13 42 13 93 29 112 35 28 8 171 67 176 72 1 0 4 11 8 22 9 30 -19 39 -52 16
-15 -11 -47 -26 -72 -35 -50 -19 -159 -37 -161 -28 -1 3 -3 34 -5 68 l-3 63
37 9 c20 5 52 12 70 16 18 4 37 15 42 25 6 11 23 27 39 36 28 16 29 19 26 87
-2 38 -7 73 -12 77 -4 4 -30 10 -58 13 -43 5 -56 2 -90 -21z m79 -68 c17 -45
-16 -88 -76 -99 -44 -8 -55 5 -32 40 9 14 14 25 11 25 -3 0 4 11 16 25 25 28
72 34 81 9z"/>
<path d="M4862 748 c-6 -7 -28 -22 -49 -33 -44 -23 -133 -104 -133 -122 0 -27
25 -25 51 5 35 39 75 44 65 10 -13 -46 -36 -245 -32 -277 6 -50 19 -57 58 -28
18 13 56 36 83 50 58 30 91 58 100 88 13 41 -16 40 -66 -2 -50 -42 -84 -51
-75 -21 5 19 17 115 22 182 2 25 10 68 18 95 7 28 12 53 9 58 -7 11 -40 8 -51
-5z"/>
<path d="M7642 748 c-6 -7 -28 -22 -49 -33 -44 -23 -133 -104 -133 -122 0 -27
25 -25 51 5 35 39 75 44 65 10 -13 -46 -36 -245 -32 -277 6 -50 19 -57 58 -28
18 13 56 36 83 50 58 30 91 58 100 88 13 41 -16 40 -66 -2 -50 -42 -84 -51
-75 -21 5 19 17 115 22 182 2 25 10 68 18 95 7 28 12 53 9 58 -7 11 -40 8 -51
-5z"/>
</g>
</svg>
