<?xml version="1.0" standalone="no"?>
<!DOCTYPE svg PUBLIC "-//W3C//DTD SVG 20010904//EN"
 "http://www.w3.org/TR/2001/REC-SVG-20010904/DTD/svg10.dtd">
<svg version="1.0" xmlns="http://www.w3.org/2000/svg"
 width="460.000000pt" height="460.000000pt" viewBox="0 0 460.000000 460.000000"
 preserveAspectRatio="xMidYMid meet">

<g transform="translate(0.000000,460.000000) scale(0.100000,-0.100000)"
fill="#000000" stroke="none">
<path d="M2111 4490 c-786 -76 -1453 -540 -1792 -1245 -146 -303 -213 -601
-213 -945 0 -344 67 -642 213 -945 322 -670 935 -1119 1681 -1231 156 -24 444
-24 600 0 746 112 1359 561 1681 1231 146 303 213 601 213 945 0 513 -167 983
-491 1385 -342 424 -848 711 -1394 790 -135 19 -376 26 -498 15z m-680 -1506
c113 -33 273 -137 459 -299 l75 -65 3 175 2 175 350 0 350 0 2 -175 3 -175 75
65 c189 165 347 267 464 300 84 24 224 17 286 -14 106 -55 200 -148 200 -199
0 -34 -43 -72 -82 -72 -28 0 -44 10 -88 56 -78 79 -117 97 -200 92 -123 -7
-260 -91 -530 -325 l-125 -109 -3 -397 -2 -397 349 0 350 0 20 -26 c26 -34 26
-54 0 -88 l-20 -26 -1049 0 -1049 0 -20 26 c-26 34 -26 54 0 88 l20 26 350 0
349 0 -2 397 -3 397 -125 109 c-270 234 -407 318 -530 325 -83 5 -122 -13
-200 -92 -44 -46 -60 -56 -88 -56 -39 0 -82 38 -82 72 0 63 140 185 250 219
45 13 184 10 241 -7z"/>
<path d="M2120 2225 l0 -605 200 0 200 0 0 605 0 605 -200 0 -200 0 0 -605z"/>
</g>
</svg>
